#!OML:ASF E:/inclinewalkrobotboard/Project1/Captureday1/Session1/subject1.ASF
:FULLY-SPECIFIED
:DEGREES
176
root 0 0 0 1.7960737021007342 -3.7730082281664608 2.2501060819555794
lowerback 11.978517173859208 1.1129120818843383 -0.19470034469292796
upperback -4.468608672535323 1.382051332579038 -0.8491716295422952
thorax -11.575473828583043 0.6407791471530339 -1.0611298623210363
lowerneck -6.190294768232672 1.7817531446680783 4.855416761723928
upperneck 18.150225772394524 3.330450063448528 -8.527016700372728
head 6.67978261075587 1.2418926514055855 -3.3045748315288526
rclavicle -2.13624386383247E-15 -1.1370231861492807E-15
rhumerus 23.06230819447309 17.578868143450826 -48.34569959189616
rradius 74.74110144905879
rwrist 25.98903535843783
rhand -34.811960345517356 -58.109060143812364
rfingers 7.12502
rthumb -7.954322974136815 -88.02133562642845
lclavicle -1.1479437238508448E-15 -8.729349077473794E-16
lhumerus 22.477535669958932 -14.600494716266347 45.772538453511025
lradius 71.38336814770602
lwrist -21.363941169065974
lhand -45.27988616987186 -69.00849986656496
lfingers 7.125020000000012
lthumb -18.054054545203652 -39.76354810801031
rfemur -25.409771188846875 -1.1393732529330922 18.043652126759042
rtibia 47.02249575868454
rfoot -31.593815073830395 -17.776472688162826
rtoes -22.30437261301536
lfemur -25.746733918893593 2.0404488745355036 -15.69548223807111
ltibia 46.63476421753877
lfoot -31.71725316823718 2.4671859905361933
ltoes -21.661484477455286
177
root 0 0 0 1.8034445288007568 -3.7966465724718597 2.2332998430554047
lowerback 11.983121763503139 1.1222515746767272 -0.1745154653606683
upperback -4.466227316541232 1.3972849761918265 -0.849020954030632
thorax -11.57572027478912 0.6476104517934136 -1.0744554636833672
lowerneck -6.199488703551296 1.7786575803155273 4.853291724942981
upperneck 18.14823359920474 3.325410610688695 -8.522564567732937
head 6.680718555215171 1.2398034129141182 -3.3031894026076127
rclavicle -2.158674643318471E-15 -1.1226700841609503E-15
rhumerus 23.12190156562683 17.655160616114564 -48.3857001300628
rradius 74.79004097502659
rwrist 25.94298986583052
rhand -34.81556977706833 -58.115927429736196
rfingers 7.12502
rthumb -7.95795957827235 -88.02750623833376
lclavicle -1.1587822851184966E-15 -8.536871550671516E-16
lhumerus 22.494100045267174 -14.631808872513854 45.782071088568046
lradius 71.40336130406442
lwrist -21.346407513078375
lhand -45.28142300821336 -68.98633326686529
lfingers 7.125020000000012
lthumb -18.055476849541318 -39.74180226466157
rfemur -25.307703612060735 -1.054282332676883 18.181296374734337
rtibia 46.4818023891563
rfoot -32.02835855177266 -17.85503187579705
rtoes -22.384234871502134
lfemur -26.081136884304012 2.048074565599299 -15.591884245756836
ltibia 46.57839797170136
lfoot -31.848721619550304 2.63463641390471
ltoes -21.61298487540433
178
root 0 0 0 1.8142855234851938 -3.8212081549935286 2.215513904540086
lowerback 11.984789372241467 1.1323668372604168 -0.15370155489993775
upperback -4.463795387265121 1.4136980650835338 -0.848953623255175
thorax -11.573875601799854 0.6549853371890249 -1.0884948975158566
lowerneck -6.209886623187148 1.7740057814378314 4.849458061200319
upperneck 18.147707632591437 3.318032631880566 -8.515343232492844
head 6.682423865935549 1.236728829462233 -3.3009112538213348
rclavicle -2.1691403044959016E-15 -1.1071164496761375E-15
rhumerus 23.181935955705043 17.733918433962636 -48.429830199069514
rradius 74.8388927907389
rwrist 25.89278336411357
rhand -34.818336270299994 -58.118145204009494
rfingers 7.12502
rthumb -7.960789382054569 -88.02898005413485
lclavicle -1.1560086478802636E-15 -8.349318618413049E-16
lhumerus 22.502402594090306 -14.652137967924476 45.79008630448024
lradius 71.41480243705402
lwrist -21.33342869805253
lhand -45.28122334543115 -68.96662443661592
lfingers 7.125020000000012
lthumb -18.05518744120678 -39.72212541389007
rfemur -25.14451458761161 -0.9460874899301794 18.34472694700693
rtibia 45.80464672276714
rfoot -32.511516571970986 -17.92197451225646
rtoes -22.541492675422017
lfemur -26.35196129657188 2.0169386198285113 -15.507703674146057
ltibia 46.27243434817851
lfoot -32.03412626639197 2.866067675272131
ltoes -21.580305939483907
179
root 0 0 0 1.8321059167007192 -3.8536514382266986 2.1861929092872523
lowerback 11.983566045194015 1.1464260715714696 -0.12167389121477623
upperback -4.460631998010043 1.4370468472428963 -0.8476543561954873
thorax -11.569272728698335 0.6654099153537159 -1.1087165326142232
lowerneck -6.224830086383789 1.7663112401851444 4.843459217228446
upperneck 18.1490779112693 3.3059780945395785 -8.504029952990184
head 6.685624544322208 1.2316162600387393 -3.297438465085646
rclavicle -2.1809608024045045E-15 -1.0813904634100228E-15
rhumerus 23.245257856869202 17.817428344097877 -48.47831217558534
rradius 74.88889963184693
rwrist 25.837953605805936
rhand -34.82053170188689 -58.115696282358
rfingers 7.12502
rthumb -7.963432969166631 -88.0269172889927
lclavicle -1.1438687748785146E-15 -8.088071073854552E-16
lhumerus 22.50103899684867 -14.65702523212474 45.79401297344562
lradius 71.41567167838575
lwrist -21.329125870437295
lhand -45.278955580781144 -68.95286380978487
lfingers 7.125020000000012
lthumb -18.053250499837485 -39.708709463481384
rfemur -24.838491547632742 -0.7651570700281463 18.60617364614688
rtibia 44.706399134972386
rfoot -33.200346650227075 -17.98375994382435
rtoes -22.825512558306457
lfemur -26.651157027000806 1.947223340992199 -15.3640437680175
ltibia 45.80654919257803
lfoot -32.14661302224398 3.121084595728288
ltoes -21.586171518572563
180
root 0 0 0 1.8411767768405438 -3.872785803855963 2.1699971672977822
lowerback 11.98155061922494 1.1557739511733551 -0.10221614752148389
upperback -4.459194579105352 1.4522006550123354 -0.8480450007676065
thorax -11.56606954196389 0.6721885147404716 -1.1225745829645184
lowerneck -6.23196008042689 1.7602373453010307 4.838977800968819
upperneck 18.154850193278797 3.296759612612263 -8.495872576946251
head 6.688984443645301 1.2276569541982147 -3.2949849696067055
rclavicle -2.1694770473549206E-15 -1.0804072344762988E-15
rhumerus 23.27737597815635 17.86220352090045 -48.50671854305082
rradius 74.91522065546161
rwrist 25.806235649806524
rhand -34.82118127471394 -58.11230518708602
rfingers 7.12502
rthumb -7.963799752534866 -88.02255829254221
lclavicle -1.1307929552844662E-15 -8.091286895309719E-16
lhumerus 22.48837588138307 -14.644762501873506 45.79533335757611
lradius 71.40424272800634
lwrist -21.331327627625733
lhand -45.27632978380612 -68.95190760776565
lfingers 7.125020000000012
lthumb -18.05021797337973 -39.70586286874057
rfemur -24.628708987913384 -0.6747446943262836 18.727435163789476
rtibia 44.18826319725749
rfoot -33.47376574718531 -17.98952189342362
rtoes -23.0124505157962
lfemur -26.765083158430286 1.8950581701747802 -15.308446837040812
ltibia 45.45459248999718
lfoot -32.219188132675065 3.268850110386045
ltoes -21.59057450807578
181
root 0 0 0 1.8480769699467499 -3.888146906657615 2.157619663489185
lowerback 11.980115676395279 1.1634794818858274 -0.08655309081276796
upperback -4.458014434291883 1.464565093380855 -0.8487900962734579
thorax -11.56367586800112 0.6777582783895086 -1.134153659968538
lowerneck -6.237880095804799 1.7551195168707385 4.8355261361066235
upperneck 18.16130263243893 3.2890078185192495 -8.489590686591667
head 6.692307946284846 1.2242727560273727 -3.293199951997437
rclavicle -2.163435146252369E-15 -1.07764228603402E-15
rhumerus 23.291170523025166 17.881832239414024 -48.52030731975259
rradius 74.92588418139752
rwrist 25.79129169697886
rhand -34.82098108711525 -58.1081309753569
rfingers 7.12502
rthumb -7.96368765200414 -88.01852251698901
lclavicle -1.1193421073217634E-15 -8.093213937383858E-16
lhumerus 22.472478254991728 -14.620950564664914 45.7905764112768
lradius 71.38718221643602
lwrist -21.342667155216695
lhand -45.27385580035078 -68.96280712314135
lfingers 7.125020000000012
lthumb -18.047782460749143 -39.71592701714805
rfemur -24.46011359199845 -0.6183440838197423 18.806497909157557
rtibia 43.882587793575475
rfoot -33.61710718942764 -17.975947224149458
rtoes -23.141580648971402
lfemur -26.820770806028563 1.8536959058717613 -15.26421226785589
ltibia 45.212224004952766
lfoot -32.21480902502755 3.344211379827315
ltoes -21.600116155635472
182
root 0 0 0 1.851866532832163 -3.899237387735333 2.1498717513468355
lowerback 11.979801496398087 1.16910525957159 -0.07546297061404617
upperback -4.457271107159965 1.4734712746422043 -0.849856910710255
thorax -11.562539929795548 0.6817983291544936 -1.14294681443481
lowerneck -6.241619030229353 1.7511952958265387 4.833184675347897
upperneck 18.168651680385622 3.2832125190032233 -8.48559701048038
head 6.695517775981008 1.2216683966941262 -3.292168609436917
rclavicle -2.1594557957442884E-15 -1.0784148756043038E-15
rhumerus 23.2923582970757 17.884367221696756 -48.52335769373654
rradius 74.92640901863369
rwrist 25.78812426322941
rhand -34.82051988791964 -58.10500102361191
rfingers 7.12502
rthumb -7.9632725798589306 -88.01566544779595
lclavicle -1.1138420229664335E-15 -8.129916717333275E-16
lhumerus 22.455258600844417 -14.592035970729182 45.783274760803806
lradius 71.36775456301658
lwrist -21.35771067738753
lhand -45.27195821914761 -68.98086693062803
lfingers 7.125020000000012
lthumb -18.045936140196552 -39.732987372054325
rfemur -24.337589716704347 -0.5997929339878567 18.838144011641
rtibia 43.80788709656723
rfoot -33.633085768126605 -17.948757391836903
rtoes -23.21587266489529
lfemur -26.836994970328668 1.8269224175401262 -15.23430174733343
ltibia 45.08672642468942
lfoot -32.157403028552444 3.3576851088748025
ltoes -21.6044977822927
183
root 0 0 0 1.8530765428562925 -3.9102605902307723 2.141261974726619
lowerback 11.982458670089347 1.174312700920723 -0.06287253270298154
upperback -4.456496057904027 1.4819596498618475 -0.8506204397202556
thorax -11.563472737520659 0.6856476339294839 -1.1521068322450214
lowerneck -6.245062611229983 1.7482128378350807 4.83254316891497
upperneck 18.177334085928884 3.2789449319329655 -8.48457349460827
head 6.699046740323949 1.2195893102469757 -3.2922352178490026
rclavicle -2.170010684355074E-15 -1.0802170741217171E-15
rhumerus 23.276100686068922 17.861373234211783 -48.5092308442389
rradius 74.91209670888438
rwrist 25.803922066058643
rhand -34.82003907447992 -58.10425701226089
rfingers 7.12502
rthumb -7.963170185162825 -88.01657950348948
lclavicle -1.1186736072907651E-15 -8.203743553778627E-16
lhumerus 22.435070653333696 -14.549597430011232 45.768359708621446
lradius 71.34237663767021
lwrist -21.38384275719146
lhand -45.270799319107105 -69.01533993814598
lfingers 7.125020000000012
lthumb -18.04529143788425 -39.767641180264675
rfemur -24.23192221725596 -0.6130305572852279 18.841881793242713
rtibia 43.93986889552335
rfoot -33.54735658555228 -17.90385077657988
rtoes -23.2249340105267
lfemur -26.884916140752534 1.8326980057183038 -15.159596857738075
ltibia 45.273996156405964
lfoot -31.916483136421533 3.236761220342343
ltoes -21.611394682726534
